<svg width="34" height="32" viewBox="0 0 34 32" fill="none" xmlns="http://www.w3.org/2000/svg">
<rect width="34" height="32" rx="7" fill="#FEF0F0"/>
<path d="M23.9965 12.2231C23.7591 11.7098 23.4168 11.2446 22.9888 10.8537C22.5604 10.4615 22.0554 10.1499 21.5011 9.93576C20.9264 9.7128 20.3099 9.59868 19.6876 9.60002C18.8144 9.60002 17.9626 9.82329 17.2223 10.245C17.0452 10.3459 16.8769 10.4567 16.7175 10.5775C16.5581 10.4567 16.3899 10.3459 16.2128 10.245C15.4725 9.82329 14.6206 9.60002 13.7475 9.60002C13.1188 9.60002 12.5095 9.71248 11.934 9.93576C11.3779 10.1508 10.8766 10.46 10.4463 10.8537C10.0177 11.2442 9.67532 11.7095 9.43857 12.2231C9.19239 12.7573 9.06665 13.3246 9.06665 13.9084C9.06665 14.4592 9.18708 15.0331 9.42617 15.6169C9.6263 16.1048 9.91321 16.6109 10.2798 17.122C10.8607 17.9307 11.6594 18.7742 12.6512 19.6293C14.2947 21.0467 15.9223 22.0258 15.9914 22.0655L16.4111 22.3169C16.5971 22.4277 16.8362 22.4277 17.0221 22.3169L17.4419 22.0655C17.511 22.0242 19.1368 21.0467 20.7821 19.6293C21.7738 18.7742 22.5726 17.9307 23.1535 17.122C23.5201 16.6109 23.8088 16.1048 24.0071 15.6169C24.2462 15.0331 24.3666 14.4592 24.3666 13.9084C24.3684 13.3246 24.2427 12.7573 23.9965 12.2231V12.2231Z" fill="#FF8585"/>
</svg>
